STARTFONT 2.1
FONT --Helv-Regular-R-Normal--9-140-96-48-P-93-WINDOWS-ANSI~2.0
SIZE 14 96 48
FONTBOUNDINGBOX 16 12 0 -2
METRICSSET 2
STARTPROPERTIES 20
FONT_ASCENT 7
PIXEL_SIZE 9
RESOLUTION_X 96
RESOLUTION_Y 48
POINT_SIZE 140
FACE_NAME "Helv 14"
COPYRIGHT "(c) Copyright Bitstream Inc. 1985. All rights reserved."
FOUNDRY ""
FAMILY_NAME "Helv"
WEIGHT_NAME "Regular"
RELATIVE_WEIGHT 50
SLANT "R"
SPACING "P"
SETWIDTH_NAME "Normal"
RELATIVE_SETWIDTH 50
ADD_STYLE_NAME ""
AVERAGE_WIDTH 93
DEFAULT_CHAR 128
CHARSET_REGISTRY "WINDOWS"
CHARSET_ENCODING "ANSI-2.0"
ENDPROPERTIES
CHARS 224
STARTCHAR space
ENCODING 32
SWIDTH 268 0
DWIDTH 5 0
BBX 0 0 5 10
VVECTOR 8 10
SWIDTH1 0 -1286
DWIDTH1 0 -12
BITMAP 
ENDCHAR
STARTCHAR exclam
ENCODING 33
SWIDTH 214 0
DWIDTH 4 0
BBX 2 7 1 0
VVECTOR 2 10
SWIDTH1 0 -1286
DWIDTH1 0 -12
BITMAP 
C0
C0
C0
C0
C0
00
C0
ENDCHAR
STARTCHAR quotedbl
ENCODING 34
SWIDTH 375 0
DWIDTH 7 0
BBX 5 3 1 4
VVECTOR 4 10
SWIDTH1 0 -1286
DWIDTH1 0 -12
BITMAP 
D8
D8
D8
ENDCHAR
STARTCHAR numbersign
ENCODING 35
SWIDTH 750 0
DWIDTH 14 0
BBX 12 7 1 0
VVECTOR 7 10
SWIDTH1 0 -1286
DWIDTH1 0 -12
BITMAP 
0CC0
0CC0
7FF0
1980
FFE0
3300
3300
ENDCHAR
STARTCHAR dollar
ENCODING 36
SWIDTH 536 0
DWIDTH 10 0
BBX 9 8 0 -1
VVECTOR 4 10
SWIDTH1 0 -1286
DWIDTH1 0 -12
BITMAP 
0800
3E00
C980
7800
0F00
C980
3E00
0800
ENDCHAR
STARTCHAR percent
ENCODING 37
SWIDTH 804 0
DWIDTH 15 0
BBX 14 7 0 0
VVECTOR 7 10
SWIDTH1 0 -1286
DWIDTH1 0 -12
BITMAP 
7860
CCC0
7980
0300
0678
0CCC
1878
ENDCHAR
STARTCHAR ampersand
ENCODING 38
SWIDTH 643 0
DWIDTH 12 0
BBX 11 7 1 0
VVECTOR 7 10
SWIDTH1 0 -1286
DWIDTH1 0 -12
BITMAP 
3E00
6300
6300
3C00
C6C0
C380
7E60
ENDCHAR
STARTCHAR quotesingle
ENCODING 39
SWIDTH 268 0
DWIDTH 5 0
BBX 2 3 1 4
VVECTOR 2 10
SWIDTH1 0 -1286
DWIDTH1 0 -12
BITMAP 
C0
C0
C0
ENDCHAR
STARTCHAR parenleft
ENCODING 40
SWIDTH 321 0
DWIDTH 6 0
BBX 4 9 1 -2
VVECTOR 3 10
SWIDTH1 0 -1286
DWIDTH1 0 -12
BITMAP 
30
60
60
C0
C0
C0
60
60
30
ENDCHAR
STARTCHAR parenright
ENCODING 41
SWIDTH 321 0
DWIDTH 6 0
BBX 4 9 1 -2
VVECTOR 3 10
SWIDTH1 0 -1286
DWIDTH1 0 -12
BITMAP 
C0
60
60
30
30
30
60
60
C0
ENDCHAR
STARTCHAR asterisk
ENCODING 42
SWIDTH 482 0
DWIDTH 9 0
BBX 7 4 1 3
VVECTOR 5 10
SWIDTH1 0 -1286
DWIDTH1 0 -12
BITMAP 
10
FE
38
6C
ENDCHAR
STARTCHAR plus
ENCODING 43
SWIDTH 589 0
DWIDTH 11 0
BBX 10 5 0 0
VVECTOR 5 10
SWIDTH1 0 -1286
DWIDTH1 0 -12
BITMAP 
0C00
0C00
FFC0
0C00
0C00
ENDCHAR
STARTCHAR comma
ENCODING 44
SWIDTH 268 0
DWIDTH 5 0
BBX 2 2 1 -1
VVECTOR 2 10
SWIDTH1 0 -1286
DWIDTH1 0 -12
BITMAP 
C0
40
ENDCHAR
STARTCHAR hyphen
ENCODING 45
SWIDTH 375 0
DWIDTH 7 0
BBX 5 1 1 2
VVECTOR 4 10
SWIDTH1 0 -1286
DWIDTH1 0 -12
BITMAP 
F8
ENDCHAR
STARTCHAR period
ENCODING 46
SWIDTH 268 0
DWIDTH 5 0
BBX 2 1 1 0
VVECTOR 2 10
SWIDTH1 0 -1286
DWIDTH1 0 -12
BITMAP 
C0
ENDCHAR
STARTCHAR slash
ENCODING 47
SWIDTH 268 0
DWIDTH 5 0
BBX 5 8 0 -1
VVECTOR 3 10
SWIDTH1 0 -1286
DWIDTH1 0 -12
BITMAP 
18
18
30
30
60
60
C0
C0
ENDCHAR
STARTCHAR zero
ENCODING 48
SWIDTH 536 0
DWIDTH 10 0
BBX 9 7 0 0
VVECTOR 4 10
SWIDTH1 0 -1286
DWIDTH1 0 -12
BITMAP 
3E00
6300
C180
C180
C180
6300
3E00
ENDCHAR
STARTCHAR one
ENCODING 49
SWIDTH 536 0
DWIDTH 10 0
BBX 5 7 1 0
VVECTOR 2 10
SWIDTH1 0 -1286
DWIDTH1 0 -12
BITMAP 
18
F8
18
18
18
18
18
ENDCHAR
STARTCHAR two
ENCODING 50
SWIDTH 536 0
DWIDTH 10 0
BBX 8 7 0 0
VVECTOR 3 10
SWIDTH1 0 -1286
DWIDTH1 0 -12
BITMAP 
7E
C3
03
0E
38
E0
FF
ENDCHAR
STARTCHAR three
ENCODING 51
SWIDTH 536 0
DWIDTH 10 0
BBX 8 7 0 0
VVECTOR 3 10
SWIDTH1 0 -1286
DWIDTH1 0 -12
BITMAP 
7E
C3
03
3E
03
C3
7E
ENDCHAR
STARTCHAR four
ENCODING 52
SWIDTH 536 0
DWIDTH 10 0
BBX 9 7 0 0
VVECTOR 4 10
SWIDTH1 0 -1286
DWIDTH1 0 -12
BITMAP 
1E00
3600
6600
C600
FF80
0600
0600
ENDCHAR
STARTCHAR five
ENCODING 53
SWIDTH 536 0
DWIDTH 10 0
BBX 9 7 0 0
VVECTOR 4 10
SWIDTH1 0 -1286
DWIDTH1 0 -12
BITMAP 
FF00
C000
DE00
E300
0180
E300
3E00
ENDCHAR
STARTCHAR six
ENCODING 54
SWIDTH 536 0
DWIDTH 10 0
BBX 9 7 0 0
VVECTOR 4 10
SWIDTH1 0 -1286
DWIDTH1 0 -12
BITMAP 
1F00
6000
DE00
E300
C180
6300
3E00
ENDCHAR
STARTCHAR seven
ENCODING 55
SWIDTH 536 0
DWIDTH 10 0
BBX 9 7 0 0
VVECTOR 4 10
SWIDTH1 0 -1286
DWIDTH1 0 -12
BITMAP 
FF80
0300
0600
0C00
1800
3000
3000
ENDCHAR
STARTCHAR eight
ENCODING 56
SWIDTH 536 0
DWIDTH 10 0
BBX 9 7 0 0
VVECTOR 4 10
SWIDTH1 0 -1286
DWIDTH1 0 -12
BITMAP 
7F00
C180
C180
7F00
C180
C180
7F00
ENDCHAR
STARTCHAR nine
ENCODING 57
SWIDTH 536 0
DWIDTH 10 0
BBX 9 7 0 0
VVECTOR 4 10
SWIDTH1 0 -1286
DWIDTH1 0 -12
BITMAP 
3E00
6300
C180
6380
3D80
0300
7C00
ENDCHAR
STARTCHAR colon
ENCODING 58
SWIDTH 268 0
DWIDTH 5 0
BBX 2 5 1 0
VVECTOR 2 10
SWIDTH1 0 -1286
DWIDTH1 0 -12
BITMAP 
C0
00
00
00
C0
ENDCHAR
STARTCHAR semicolon
ENCODING 59
SWIDTH 268 0
DWIDTH 5 0
BBX 2 6 1 -1
VVECTOR 2 10
SWIDTH1 0 -1286
DWIDTH1 0 -12
BITMAP 
C0
00
00
00
C0
40
ENDCHAR
STARTCHAR less
ENCODING 60
SWIDTH 589 0
DWIDTH 11 0
BBX 10 5 0 0
VVECTOR 5 10
SWIDTH1 0 -1286
DWIDTH1 0 -12
BITMAP 
01C0
1E00
E000
1E00
01C0
ENDCHAR
STARTCHAR equal
ENCODING 61
SWIDTH 589 0
DWIDTH 11 0
BBX 10 3 0 1
VVECTOR 5 10
SWIDTH1 0 -1286
DWIDTH1 0 -12
BITMAP 
FFC0
0000
FFC0
ENDCHAR
STARTCHAR greater
ENCODING 62
SWIDTH 589 0
DWIDTH 11 0
BBX 10 5 0 0
VVECTOR 5 10
SWIDTH1 0 -1286
DWIDTH1 0 -12
BITMAP 
E000
1E00
01C0
1E00
E000
ENDCHAR
STARTCHAR question
ENCODING 63
SWIDTH 536 0
DWIDTH 10 0
BBX 8 7 1 0
VVECTOR 5 10
SWIDTH1 0 -1286
DWIDTH1 0 -12
BITMAP 
7E
C3
03
0E
18
00
18
ENDCHAR
STARTCHAR at
ENCODING 64
SWIDTH 911 0
DWIDTH 17 0
BBX 15 8 1 -1
VVECTOR 9 10
SWIDTH1 0 -1286
DWIDTH1 0 -12
BITMAP 
0FF0
300C
C3A6
CC66
CC66
C7DC
3000
0FE0
ENDCHAR
STARTCHAR A
ENCODING 65
SWIDTH 643 0
DWIDTH 12 0
BBX 12 7 0 0
VVECTOR 6 10
SWIDTH1 0 -1286
DWIDTH1 0 -12
BITMAP 
0600
0F00
1980
30C0
3FC0
6060
C030
ENDCHAR
STARTCHAR B
ENCODING 66
SWIDTH 589 0
DWIDTH 11 0
BBX 9 7 1 0
VVECTOR 6 10
SWIDTH1 0 -1286
DWIDTH1 0 -12
BITMAP 
FF00
C180
C180
FF00
C180
C180
FF00
ENDCHAR
STARTCHAR C
ENCODING 67
SWIDTH 696 0
DWIDTH 13 0
BBX 11 7 1 0
VVECTOR 7 10
SWIDTH1 0 -1286
DWIDTH1 0 -12
BITMAP 
1F80
6060
C000
C000
C000
6060
1F80
ENDCHAR
STARTCHAR D
ENCODING 68
SWIDTH 696 0
DWIDTH 13 0
BBX 11 7 1 0
VVECTOR 7 10
SWIDTH1 0 -1286
DWIDTH1 0 -12
BITMAP 
FF00
C0C0
C060
C060
C060
C0C0
FF00
ENDCHAR
STARTCHAR E
ENCODING 69
SWIDTH 589 0
DWIDTH 11 0
BBX 9 7 1 0
VVECTOR 6 10
SWIDTH1 0 -1286
DWIDTH1 0 -12
BITMAP 
FF80
C000
C000
FF00
C000
C000
FF80
ENDCHAR
STARTCHAR F
ENCODING 70
SWIDTH 482 0
DWIDTH 9 0
BBX 8 7 1 0
VVECTOR 6 10
SWIDTH1 0 -1286
DWIDTH1 0 -12
BITMAP 
FF
C0
C0
FE
C0
C0
C0
ENDCHAR
STARTCHAR G
ENCODING 71
SWIDTH 750 0
DWIDTH 14 0
BBX 12 7 1 0
VVECTOR 7 10
SWIDTH1 0 -1286
DWIDTH1 0 -12
BITMAP 
1FC0
6030
C000
C3F0
C030
6070
1F90
ENDCHAR
STARTCHAR H
ENCODING 72
SWIDTH 696 0
DWIDTH 13 0
BBX 11 7 1 0
VVECTOR 7 10
SWIDTH1 0 -1286
DWIDTH1 0 -12
BITMAP 
C060
C060
C060
FFE0
C060
C060
C060
ENDCHAR
STARTCHAR I
ENCODING 73
SWIDTH 214 0
DWIDTH 4 0
BBX 2 7 1 0
VVECTOR 2 10
SWIDTH1 0 -1286
DWIDTH1 0 -12
BITMAP 
C0
C0
C0
C0
C0
C0
C0
ENDCHAR
STARTCHAR J
ENCODING 74
SWIDTH 482 0
DWIDTH 9 0
BBX 8 7 0 0
VVECTOR 4 10
SWIDTH1 0 -1286
DWIDTH1 0 -12
BITMAP 
03
03
03
03
C3
C3
7E
ENDCHAR
STARTCHAR K
ENCODING 75
SWIDTH 643 0
DWIDTH 12 0
BBX 10 7 1 0
VVECTOR 6 10
SWIDTH1 0 -1286
DWIDTH1 0 -12
BITMAP 
C1C0
C300
CC00
FC00
C700
C180
C0C0
ENDCHAR
STARTCHAR L
ENCODING 76
SWIDTH 536 0
DWIDTH 10 0
BBX 9 7 1 0
VVECTOR 6 10
SWIDTH1 0 -1286
DWIDTH1 0 -12
BITMAP 
C000
C000
C000
C000
C000
C000
FF80
ENDCHAR
STARTCHAR M
ENCODING 77
SWIDTH 804 0
DWIDTH 15 0
BBX 13 7 1 0
VVECTOR 8 10
SWIDTH1 0 -1286
DWIDTH1 0 -12
BITMAP 
C018
E038
F078
D8D8
CD98
C718
C218
ENDCHAR
STARTCHAR N
ENCODING 78
SWIDTH 643 0
DWIDTH 12 0
BBX 10 7 1 0
VVECTOR 6 10
SWIDTH1 0 -1286
DWIDTH1 0 -12
BITMAP 
E0C0
F0C0
D8C0
CCC0
C6C0
C3C0
C1C0
ENDCHAR
STARTCHAR O
ENCODING 79
SWIDTH 804 0
DWIDTH 15 0
BBX 13 7 1 0
VVECTOR 8 10
SWIDTH1 0 -1286
DWIDTH1 0 -12
BITMAP 
1FC0
6030
C018
C018
C018
6030
1FC0
ENDCHAR
STARTCHAR P
ENCODING 80
SWIDTH 589 0
DWIDTH 11 0
BBX 9 7 1 0
VVECTOR 6 10
SWIDTH1 0 -1286
DWIDTH1 0 -12
BITMAP 
FE00
C180
C180
FE00
C000
C000
C000
ENDCHAR
STARTCHAR Q
ENCODING 81
SWIDTH 804 0
DWIDTH 15 0
BBX 13 8 1 -1
VVECTOR 8 10
SWIDTH1 0 -1286
DWIDTH1 0 -12
BITMAP 
1FC0
6030
C018
C018
C098
6070
1FE0
0010
ENDCHAR
STARTCHAR R
ENCODING 82
SWIDTH 643 0
DWIDTH 12 0
BBX 10 7 1 0
VVECTOR 6 10
SWIDTH1 0 -1286
DWIDTH1 0 -12
BITMAP 
FF80
C0C0
C0C0
FF80
C0C0
C0C0
C0C0
ENDCHAR
STARTCHAR S
ENCODING 83
SWIDTH 643 0
DWIDTH 12 0
BBX 10 7 1 0
VVECTOR 6 10
SWIDTH1 0 -1286
DWIDTH1 0 -12
BITMAP 
7F00
C180
C000
7F80
00C0
C0C0
7F80
ENDCHAR
STARTCHAR T
ENCODING 84
SWIDTH 536 0
DWIDTH 10 0
BBX 10 7 0 0
VVECTOR 5 10
SWIDTH1 0 -1286
DWIDTH1 0 -12
BITMAP 
FFC0
0C00
0C00
0C00
0C00
0C00
0C00
ENDCHAR
STARTCHAR U
ENCODING 85
SWIDTH 696 0
DWIDTH 13 0
BBX 11 7 1 0
VVECTOR 7 10
SWIDTH1 0 -1286
DWIDTH1 0 -12
BITMAP 
C060
C060
C060
C060
C060
60C0
3F80
ENDCHAR
STARTCHAR V
ENCODING 86
SWIDTH 643 0
DWIDTH 12 0
BBX 12 7 0 0
VVECTOR 6 10
SWIDTH1 0 -1286
DWIDTH1 0 -12
BITMAP 
C030
6060
30C0
30C0
1980
0F00
0600
ENDCHAR
STARTCHAR W
ENCODING 87
SWIDTH 804 0
DWIDTH 15 0
BBX 15 7 0 0
VVECTOR 8 10
SWIDTH1 0 -1286
DWIDTH1 0 -12
BITMAP 
C106
C386
638C
66CC
3C78
1830
1830
ENDCHAR
STARTCHAR X
ENCODING 88
SWIDTH 589 0
DWIDTH 11 0
BBX 9 7 1 0
VVECTOR 6 10
SWIDTH1 0 -1286
DWIDTH1 0 -12
BITMAP 
C180
6300
3600
1C00
3600
6300
C180
ENDCHAR
STARTCHAR Y
ENCODING 89
SWIDTH 643 0
DWIDTH 12 0
BBX 10 7 1 0
VVECTOR 6 10
SWIDTH1 0 -1286
DWIDTH1 0 -12
BITMAP 
C0C0
6180
3300
1E00
0C00
0C00
0C00
ENDCHAR
STARTCHAR Z
ENCODING 90
SWIDTH 589 0
DWIDTH 11 0
BBX 9 7 1 0
VVECTOR 6 10
SWIDTH1 0 -1286
DWIDTH1 0 -12
BITMAP 
7F80
0300
0600
1C00
3000
6000
FF80
ENDCHAR
STARTCHAR bracketleft
ENCODING 91
SWIDTH 321 0
DWIDTH 6 0
BBX 4 9 1 -2
VVECTOR 3 10
SWIDTH1 0 -1286
DWIDTH1 0 -12
BITMAP 
F0
C0
C0
C0
C0
C0
C0
C0
F0
ENDCHAR
STARTCHAR backslash
ENCODING 92
SWIDTH 268 0
DWIDTH 5 0
BBX 5 8 0 -1
VVECTOR 3 10
SWIDTH1 0 -1286
DWIDTH1 0 -12
BITMAP 
C0
C0
60
60
30
30
18
18
ENDCHAR
STARTCHAR bracketright
ENCODING 93
SWIDTH 321 0
DWIDTH 6 0
BBX 4 9 1 -2
VVECTOR 3 10
SWIDTH1 0 -1286
DWIDTH1 0 -12
BITMAP 
F0
30
30
30
30
30
30
30
F0
ENDCHAR
STARTCHAR asciicircum
ENCODING 94
SWIDTH 482 0
DWIDTH 9 0
BBX 9 3 0 4
VVECTOR 5 10
SWIDTH1 0 -1286
DWIDTH1 0 -12
BITMAP 
1C00
7700
C180
ENDCHAR
STARTCHAR underscore
ENCODING 95
SWIDTH 536 0
DWIDTH 10 0
BBX 10 1 0 -2
VVECTOR 5 10
SWIDTH1 0 -1286
DWIDTH1 0 -12
BITMAP 
FFC0
ENDCHAR
STARTCHAR grave
ENCODING 96
SWIDTH 482 0
DWIDTH 9 0
BBX 4 2 2 6
VVECTOR 4 10
SWIDTH1 0 -1286
DWIDTH1 0 -12
BITMAP 
E0
30
ENDCHAR
STARTCHAR a
ENCODING 97
SWIDTH 536 0
DWIDTH 10 0
BBX 9 5 1 0
VVECTOR 6 10
SWIDTH1 0 -1286
DWIDTH1 0 -12
BITMAP 
7E00
0300
7F00
C300
7D80
ENDCHAR
STARTCHAR b
ENCODING 98
SWIDTH 589 0
DWIDTH 11 0
BBX 9 7 1 0
VVECTOR 6 10
SWIDTH1 0 -1286
DWIDTH1 0 -12
BITMAP 
C000
C000
DF00
E180
C180
E180
DF00
ENDCHAR
STARTCHAR c
ENCODING 99
SWIDTH 482 0
DWIDTH 9 0
BBX 8 5 1 0
VVECTOR 6 10
SWIDTH1 0 -1286
DWIDTH1 0 -12
BITMAP 
7E
C3
C0
C3
7E
ENDCHAR
STARTCHAR d
ENCODING 100
SWIDTH 589 0
DWIDTH 11 0
BBX 9 7 1 0
VVECTOR 6 10
SWIDTH1 0 -1286
DWIDTH1 0 -12
BITMAP 
0180
0180
7D80
C380
C180
C380
7D80
ENDCHAR
STARTCHAR e
ENCODING 101
SWIDTH 536 0
DWIDTH 10 0
BBX 9 5 1 0
VVECTOR 6 10
SWIDTH1 0 -1286
DWIDTH1 0 -12
BITMAP 
7F00
C180
FF80
C000
7F00
ENDCHAR
STARTCHAR f
ENCODING 102
SWIDTH 321 0
DWIDTH 6 0
BBX 5 7 1 0
VVECTOR 4 10
SWIDTH1 0 -1286
DWIDTH1 0 -12
BITMAP 
38
60
F8
60
60
60
60
ENDCHAR
STARTCHAR g
ENCODING 103
SWIDTH 589 0
DWIDTH 11 0
BBX 9 7 1 -2
VVECTOR 6 10
SWIDTH1 0 -1286
DWIDTH1 0 -12
BITMAP 
7D80
C380
C180
C380
7D80
0180
7F00
ENDCHAR
STARTCHAR h
ENCODING 104
SWIDTH 536 0
DWIDTH 10 0
BBX 8 7 1 0
VVECTOR 5 10
SWIDTH1 0 -1286
DWIDTH1 0 -12
BITMAP 
C0
C0
FE
C3
C3
C3
C3
ENDCHAR
STARTCHAR i
ENCODING 105
SWIDTH 214 0
DWIDTH 4 0
BBX 2 7 1 0
VVECTOR 2 10
SWIDTH1 0 -1286
DWIDTH1 0 -12
BITMAP 
C0
00
C0
C0
C0
C0
C0
ENDCHAR
STARTCHAR j
ENCODING 106
SWIDTH 214 0
DWIDTH 4 0
BBX 3 9 0 -2
VVECTOR 1 10
SWIDTH1 0 -1286
DWIDTH1 0 -12
BITMAP 
60
00
60
60
60
60
60
60
C0
ENDCHAR
STARTCHAR k
ENCODING 107
SWIDTH 482 0
DWIDTH 9 0
BBX 8 7 1 0
VVECTOR 6 10
SWIDTH1 0 -1286
DWIDTH1 0 -12
BITMAP 
C0
C0
C6
D8
EC
C6
C3
ENDCHAR
STARTCHAR l
ENCODING 108
SWIDTH 214 0
DWIDTH 4 0
BBX 2 7 1 0
VVECTOR 2 10
SWIDTH1 0 -1286
DWIDTH1 0 -12
BITMAP 
C0
C0
C0
C0
C0
C0
C0
ENDCHAR
STARTCHAR m
ENCODING 109
SWIDTH 750 0
DWIDTH 14 0
BBX 12 5 1 0
VVECTOR 7 10
SWIDTH1 0 -1286
DWIDTH1 0 -12
BITMAP 
BDE0
E730
C630
C630
C630
ENDCHAR
STARTCHAR n
ENCODING 110
SWIDTH 536 0
DWIDTH 10 0
BBX 8 5 1 0
VVECTOR 5 10
SWIDTH1 0 -1286
DWIDTH1 0 -12
BITMAP 
DE
E3
C3
C3
C3
ENDCHAR
STARTCHAR o
ENCODING 111
SWIDTH 589 0
DWIDTH 11 0
BBX 9 5 1 0
VVECTOR 6 10
SWIDTH1 0 -1286
DWIDTH1 0 -12
BITMAP 
7F00
C180
C180
C180
7F00
ENDCHAR
STARTCHAR p
ENCODING 112
SWIDTH 589 0
DWIDTH 11 0
BBX 9 7 1 -2
VVECTOR 6 10
SWIDTH1 0 -1286
DWIDTH1 0 -12
BITMAP 
DF00
E180
C180
E180
DF00
C000
C000
ENDCHAR
STARTCHAR q
ENCODING 113
SWIDTH 589 0
DWIDTH 11 0
BBX 9 7 1 -2
VVECTOR 6 10
SWIDTH1 0 -1286
DWIDTH1 0 -12
BITMAP 
7D80
C380
C180
C380
7D80
0180
0180
ENDCHAR
STARTCHAR r
ENCODING 114
SWIDTH 321 0
DWIDTH 6 0
BBX 5 5 1 0
VVECTOR 4 10
SWIDTH1 0 -1286
DWIDTH1 0 -12
BITMAP 
D8
E0
C0
C0
C0
ENDCHAR
STARTCHAR s
ENCODING 115
SWIDTH 482 0
DWIDTH 9 0
BBX 7 5 1 0
VVECTOR 5 10
SWIDTH1 0 -1286
DWIDTH1 0 -12
BITMAP 
7C
C0
7C
06
FC
ENDCHAR
STARTCHAR t
ENCODING 116
SWIDTH 268 0
DWIDTH 5 0
BBX 5 7 0 0
VVECTOR 3 10
SWIDTH1 0 -1286
DWIDTH1 0 -12
BITMAP 
60
60
F8
60
60
60
38
ENDCHAR
STARTCHAR u
ENCODING 117
SWIDTH 536 0
DWIDTH 10 0
BBX 8 5 1 0
VVECTOR 5 10
SWIDTH1 0 -1286
DWIDTH1 0 -12
BITMAP 
C3
C3
C3
C7
7B
ENDCHAR
STARTCHAR v
ENCODING 118
SWIDTH 482 0
DWIDTH 9 0
BBX 9 5 0 0
VVECTOR 5 10
SWIDTH1 0 -1286
DWIDTH1 0 -12
BITMAP 
C180
6300
3600
1C00
0800
ENDCHAR
STARTCHAR w
ENCODING 119
SWIDTH 696 0
DWIDTH 13 0
BBX 13 5 0 0
VVECTOR 7 10
SWIDTH1 0 -1286
DWIDTH1 0 -12
BITMAP 
C218
6730
2520
3DE0
18C0
ENDCHAR
STARTCHAR x
ENCODING 120
SWIDTH 482 0
DWIDTH 9 0
BBX 7 5 1 0
VVECTOR 5 10
SWIDTH1 0 -1286
DWIDTH1 0 -12
BITMAP 
C6
6C
38
6C
C6
ENDCHAR
STARTCHAR y
ENCODING 121
SWIDTH 482 0
DWIDTH 9 0
BBX 9 7 0 -2
VVECTOR 5 10
SWIDTH1 0 -1286
DWIDTH1 0 -12
BITMAP 
C180
6300
3600
1C00
1800
1800
7000
ENDCHAR
STARTCHAR z
ENCODING 122
SWIDTH 429 0
DWIDTH 8 0
BBX 8 5 0 0
VVECTOR 4 10
SWIDTH1 0 -1286
DWIDTH1 0 -12
BITMAP 
7F
06
18
60
FF
ENDCHAR
STARTCHAR braceleft
ENCODING 123
SWIDTH 375 0
DWIDTH 7 0
BBX 6 9 0 -2
VVECTOR 3 10
SWIDTH1 0 -1286
DWIDTH1 0 -12
BITMAP 
1C
30
30
30
E0
30
30
30
1C
ENDCHAR
STARTCHAR bar
ENCODING 124
SWIDTH 214 0
DWIDTH 4 0
BBX 2 9 1 -2
VVECTOR 2 10
SWIDTH1 0 -1286
DWIDTH1 0 -12
BITMAP 
C0
C0
C0
C0
C0
C0
C0
C0
C0
ENDCHAR
STARTCHAR braceright
ENCODING 125
SWIDTH 375 0
DWIDTH 7 0
BBX 6 9 1 -2
VVECTOR 5 10
SWIDTH1 0 -1286
DWIDTH1 0 -12
BITMAP 
E0
30
30
30
1C
30
30
30
E0
ENDCHAR
STARTCHAR asciitilde
ENCODING 126
SWIDTH 482 0
DWIDTH 9 0
BBX 9 2 0 5
VVECTOR 5 10
SWIDTH1 0 -1286
DWIDTH1 0 -12
BITMAP 
7980
CF00
ENDCHAR
STARTCHAR uni007F
ENCODING 127
SWIDTH 321 0
DWIDTH 6 0
BBX 4 7 1 0
VVECTOR 3 10
SWIDTH1 0 -1286
DWIDTH1 0 -12
BITMAP 
F0
F0
F0
F0
F0
F0
F0
ENDCHAR
STARTCHAR char80
ENCODING 128
SWIDTH 321 0
DWIDTH 6 0
BBX 4 7 1 0
VVECTOR 3 10
SWIDTH1 0 -1286
DWIDTH1 0 -12
BITMAP 
F0
F0
F0
F0
F0
F0
F0
ENDCHAR
STARTCHAR char81
ENCODING 129
SWIDTH 321 0
DWIDTH 6 0
BBX 4 7 1 0
VVECTOR 3 10
SWIDTH1 0 -1286
DWIDTH1 0 -12
BITMAP 
F0
F0
F0
F0
F0
F0
F0
ENDCHAR
STARTCHAR char82
ENCODING 130
SWIDTH 321 0
DWIDTH 6 0
BBX 4 7 1 0
VVECTOR 3 10
SWIDTH1 0 -1286
DWIDTH1 0 -12
BITMAP 
F0
F0
F0
F0
F0
F0
F0
ENDCHAR
STARTCHAR char83
ENCODING 131
SWIDTH 321 0
DWIDTH 6 0
BBX 4 7 1 0
VVECTOR 3 10
SWIDTH1 0 -1286
DWIDTH1 0 -12
BITMAP 
F0
F0
F0
F0
F0
F0
F0
ENDCHAR
STARTCHAR char84
ENCODING 132
SWIDTH 321 0
DWIDTH 6 0
BBX 4 7 1 0
VVECTOR 3 10
SWIDTH1 0 -1286
DWIDTH1 0 -12
BITMAP 
F0
F0
F0
F0
F0
F0
F0
ENDCHAR
STARTCHAR char85
ENCODING 133
SWIDTH 321 0
DWIDTH 6 0
BBX 4 7 1 0
VVECTOR 3 10
SWIDTH1 0 -1286
DWIDTH1 0 -12
BITMAP 
F0
F0
F0
F0
F0
F0
F0
ENDCHAR
STARTCHAR char86
ENCODING 134
SWIDTH 321 0
DWIDTH 6 0
BBX 4 7 1 0
VVECTOR 3 10
SWIDTH1 0 -1286
DWIDTH1 0 -12
BITMAP 
F0
F0
F0
F0
F0
F0
F0
ENDCHAR
STARTCHAR char87
ENCODING 135
SWIDTH 321 0
DWIDTH 6 0
BBX 4 7 1 0
VVECTOR 3 10
SWIDTH1 0 -1286
DWIDTH1 0 -12
BITMAP 
F0
F0
F0
F0
F0
F0
F0
ENDCHAR
STARTCHAR char88
ENCODING 136
SWIDTH 321 0
DWIDTH 6 0
BBX 4 7 1 0
VVECTOR 3 10
SWIDTH1 0 -1286
DWIDTH1 0 -12
BITMAP 
F0
F0
F0
F0
F0
F0
F0
ENDCHAR
STARTCHAR char89
ENCODING 137
SWIDTH 321 0
DWIDTH 6 0
BBX 4 7 1 0
VVECTOR 3 10
SWIDTH1 0 -1286
DWIDTH1 0 -12
BITMAP 
F0
F0
F0
F0
F0
F0
F0
ENDCHAR
STARTCHAR char8A
ENCODING 138
SWIDTH 321 0
DWIDTH 6 0
BBX 4 7 1 0
VVECTOR 3 10
SWIDTH1 0 -1286
DWIDTH1 0 -12
BITMAP 
F0
F0
F0
F0
F0
F0
F0
ENDCHAR
STARTCHAR char8B
ENCODING 139
SWIDTH 321 0
DWIDTH 6 0
BBX 4 7 1 0
VVECTOR 3 10
SWIDTH1 0 -1286
DWIDTH1 0 -12
BITMAP 
F0
F0
F0
F0
F0
F0
F0
ENDCHAR
STARTCHAR char8C
ENCODING 140
SWIDTH 321 0
DWIDTH 6 0
BBX 4 7 1 0
VVECTOR 3 10
SWIDTH1 0 -1286
DWIDTH1 0 -12
BITMAP 
F0
F0
F0
F0
F0
F0
F0
ENDCHAR
STARTCHAR char8D
ENCODING 141
SWIDTH 321 0
DWIDTH 6 0
BBX 4 7 1 0
VVECTOR 3 10
SWIDTH1 0 -1286
DWIDTH1 0 -12
BITMAP 
F0
F0
F0
F0
F0
F0
F0
ENDCHAR
STARTCHAR char8E
ENCODING 142
SWIDTH 321 0
DWIDTH 6 0
BBX 4 7 1 0
VVECTOR 3 10
SWIDTH1 0 -1286
DWIDTH1 0 -12
BITMAP 
F0
F0
F0
F0
F0
F0
F0
ENDCHAR
STARTCHAR char8F
ENCODING 143
SWIDTH 321 0
DWIDTH 6 0
BBX 4 7 1 0
VVECTOR 3 10
SWIDTH1 0 -1286
DWIDTH1 0 -12
BITMAP 
F0
F0
F0
F0
F0
F0
F0
ENDCHAR
STARTCHAR char90
ENCODING 144
SWIDTH 321 0
DWIDTH 6 0
BBX 4 7 1 0
VVECTOR 3 10
SWIDTH1 0 -1286
DWIDTH1 0 -12
BITMAP 
F0
F0
F0
F0
F0
F0
F0
ENDCHAR
STARTCHAR quoteleft
ENCODING 145
SWIDTH 268 0
DWIDTH 5 0
BBX 2 2 1 5
VVECTOR 2 10
SWIDTH1 0 -1286
DWIDTH1 0 -12
BITMAP 
80
C0
ENDCHAR
STARTCHAR quoteright
ENCODING 146
SWIDTH 268 0
DWIDTH 5 0
BBX 2 2 1 5
VVECTOR 2 10
SWIDTH1 0 -1286
DWIDTH1 0 -12
BITMAP 
C0
40
ENDCHAR
STARTCHAR char93
ENCODING 147
SWIDTH 321 0
DWIDTH 6 0
BBX 4 7 1 0
VVECTOR 3 10
SWIDTH1 0 -1286
DWIDTH1 0 -12
BITMAP 
F0
F0
F0
F0
F0
F0
F0
ENDCHAR
STARTCHAR char94
ENCODING 148
SWIDTH 321 0
DWIDTH 6 0
BBX 4 7 1 0
VVECTOR 3 10
SWIDTH1 0 -1286
DWIDTH1 0 -12
BITMAP 
F0
F0
F0
F0
F0
F0
F0
ENDCHAR
STARTCHAR char95
ENCODING 149
SWIDTH 321 0
DWIDTH 6 0
BBX 4 7 1 0
VVECTOR 3 10
SWIDTH1 0 -1286
DWIDTH1 0 -12
BITMAP 
F0
F0
F0
F0
F0
F0
F0
ENDCHAR
STARTCHAR char96
ENCODING 150
SWIDTH 321 0
DWIDTH 6 0
BBX 4 7 1 0
VVECTOR 3 10
SWIDTH1 0 -1286
DWIDTH1 0 -12
BITMAP 
F0
F0
F0
F0
F0
F0
F0
ENDCHAR
STARTCHAR char97
ENCODING 151
SWIDTH 321 0
DWIDTH 6 0
BBX 4 7 1 0
VVECTOR 3 10
SWIDTH1 0 -1286
DWIDTH1 0 -12
BITMAP 
F0
F0
F0
F0
F0
F0
F0
ENDCHAR
STARTCHAR char98
ENCODING 152
SWIDTH 321 0
DWIDTH 6 0
BBX 4 7 1 0
VVECTOR 3 10
SWIDTH1 0 -1286
DWIDTH1 0 -12
BITMAP 
F0
F0
F0
F0
F0
F0
F0
ENDCHAR
STARTCHAR char99
ENCODING 153
SWIDTH 321 0
DWIDTH 6 0
BBX 4 7 1 0
VVECTOR 3 10
SWIDTH1 0 -1286
DWIDTH1 0 -12
BITMAP 
F0
F0
F0
F0
F0
F0
F0
ENDCHAR
STARTCHAR char9A
ENCODING 154
SWIDTH 321 0
DWIDTH 6 0
BBX 4 7 1 0
VVECTOR 3 10
SWIDTH1 0 -1286
DWIDTH1 0 -12
BITMAP 
F0
F0
F0
F0
F0
F0
F0
ENDCHAR
STARTCHAR char9B
ENCODING 155
SWIDTH 321 0
DWIDTH 6 0
BBX 4 7 1 0
VVECTOR 3 10
SWIDTH1 0 -1286
DWIDTH1 0 -12
BITMAP 
F0
F0
F0
F0
F0
F0
F0
ENDCHAR
STARTCHAR char9C
ENCODING 156
SWIDTH 321 0
DWIDTH 6 0
BBX 4 7 1 0
VVECTOR 3 10
SWIDTH1 0 -1286
DWIDTH1 0 -12
BITMAP 
F0
F0
F0
F0
F0
F0
F0
ENDCHAR
STARTCHAR char9D
ENCODING 157
SWIDTH 321 0
DWIDTH 6 0
BBX 4 7 1 0
VVECTOR 3 10
SWIDTH1 0 -1286
DWIDTH1 0 -12
BITMAP 
F0
F0
F0
F0
F0
F0
F0
ENDCHAR
STARTCHAR char9E
ENCODING 158
SWIDTH 321 0
DWIDTH 6 0
BBX 4 7 1 0
VVECTOR 3 10
SWIDTH1 0 -1286
DWIDTH1 0 -12
BITMAP 
F0
F0
F0
F0
F0
F0
F0
ENDCHAR
STARTCHAR char9F
ENCODING 159
SWIDTH 321 0
DWIDTH 6 0
BBX 4 7 1 0
VVECTOR 3 10
SWIDTH1 0 -1286
DWIDTH1 0 -12
BITMAP 
F0
F0
F0
F0
F0
F0
F0
ENDCHAR
STARTCHAR uni00A0
ENCODING 160
SWIDTH 268 0
DWIDTH 5 0
BBX 0 0 5 10
VVECTOR 8 10
SWIDTH1 0 -1286
DWIDTH1 0 -12
BITMAP 
ENDCHAR
STARTCHAR exclamdown
ENCODING 161
SWIDTH 214 0
DWIDTH 4 0
BBX 2 7 1 0
VVECTOR 2 10
SWIDTH1 0 -1286
DWIDTH1 0 -12
BITMAP 
C0
00
C0
C0
C0
C0
C0
ENDCHAR
STARTCHAR cent
ENCODING 162
SWIDTH 536 0
DWIDTH 10 0
BBX 9 7 0 -1
VVECTOR 4 10
SWIDTH1 0 -1286
DWIDTH1 0 -12
BITMAP 
0200
3E00
C580
C800
D180
3E00
2000
ENDCHAR
STARTCHAR sterling
ENCODING 163
SWIDTH 536 0
DWIDTH 10 0
BBX 8 7 1 0
VVECTOR 5 10
SWIDTH1 0 -1286
DWIDTH1 0 -12
BITMAP 
3E
C3
C0
FC
30
30
FF
ENDCHAR
STARTCHAR currency
ENCODING 164
SWIDTH 536 0
DWIDTH 10 0
BBX 8 6 1 1
VVECTOR 5 10
SWIDTH1 0 -1286
DWIDTH1 0 -12
BITMAP 
81
7E
C3
C3
7E
81
ENDCHAR
STARTCHAR yen
ENCODING 165
SWIDTH 589 0
DWIDTH 11 0
BBX 10 7 0 0
VVECTOR 5 10
SWIDTH1 0 -1286
DWIDTH1 0 -12
BITMAP 
C0C0
6180
F3C0
1E00
FFC0
0C00
0C00
ENDCHAR
STARTCHAR brokenbar
ENCODING 166
SWIDTH 214 0
DWIDTH 4 0
BBX 2 7 1 -1
VVECTOR 2 10
SWIDTH1 0 -1286
DWIDTH1 0 -12
BITMAP 
C0
C0
C0
00
C0
C0
C0
ENDCHAR
STARTCHAR section
ENCODING 167
SWIDTH 482 0
DWIDTH 9 0
BBX 7 8 1 -1
VVECTOR 5 10
SWIDTH1 0 -1286
DWIDTH1 0 -12
BITMAP 
7C
C0
78
CC
66
3C
06
7C
ENDCHAR
STARTCHAR dieresis
ENCODING 168
SWIDTH 482 0
DWIDTH 9 0
BBX 5 1 2 7
VVECTOR 5 10
SWIDTH1 0 -1286
DWIDTH1 0 -12
BITMAP 
D8
ENDCHAR
STARTCHAR copyright
ENCODING 169
SWIDTH 750 0
DWIDTH 14 0
BBX 13 8 1 -1
VVECTOR 8 10
SWIDTH1 0 -1286
DWIDTH1 0 -12
BITMAP 
1FC0
6030
CF98
D818
D818
CF98
6030
1FC0
ENDCHAR
STARTCHAR ordfeminine
ENCODING 170
SWIDTH 429 0
DWIDTH 8 0
BBX 6 7 1 0
VVECTOR 4 10
SWIDTH1 0 -1286
DWIDTH1 0 -12
BITMAP 
78
0C
7C
CC
7C
00
FC
ENDCHAR
STARTCHAR guillemotleft
ENCODING 171
SWIDTH 482 0
DWIDTH 9 0
BBX 7 3 1 1
VVECTOR 5 10
SWIDTH1 0 -1286
DWIDTH1 0 -12
BITMAP 
66
CC
66
ENDCHAR
STARTCHAR logicalnot
ENCODING 172
SWIDTH 589 0
DWIDTH 11 0
BBX 10 2 0 2
VVECTOR 5 10
SWIDTH1 0 -1286
DWIDTH1 0 -12
BITMAP 
FFC0
00C0
ENDCHAR
STARTCHAR uni00AD
ENCODING 173
SWIDTH 375 0
DWIDTH 7 0
BBX 5 1 1 2
VVECTOR 4 10
SWIDTH1 0 -1286
DWIDTH1 0 -12
BITMAP 
F8
ENDCHAR
STARTCHAR registered
ENCODING 174
SWIDTH 750 0
DWIDTH 14 0
BBX 13 8 1 -1
VVECTOR 8 10
SWIDTH1 0 -1286
DWIDTH1 0 -12
BITMAP 
1FC0
6030
DF98
D8D8
DF98
D8D8
6030
1FC0
ENDCHAR
STARTCHAR macron
ENCODING 175
SWIDTH 482 0
DWIDTH 9 0
BBX 5 1 2 7
VVECTOR 5 10
SWIDTH1 0 -1286
DWIDTH1 0 -12
BITMAP 
F8
ENDCHAR
STARTCHAR degree
ENCODING 176
SWIDTH 321 0
DWIDTH 6 0
BBX 5 3 0 4
VVECTOR 2 10
SWIDTH1 0 -1286
DWIDTH1 0 -12
BITMAP 
70
88
70
ENDCHAR
STARTCHAR plusminus
ENCODING 177
SWIDTH 589 0
DWIDTH 11 0
BBX 10 5 0 0
VVECTOR 5 10
SWIDTH1 0 -1286
DWIDTH1 0 -12
BITMAP 
0C00
FFC0
0C00
0000
FFC0
ENDCHAR
STARTCHAR uni00B2
ENCODING 178
SWIDTH 321 0
DWIDTH 6 0
BBX 5 5 0 2
VVECTOR 2 10
SWIDTH1 0 -1286
DWIDTH1 0 -12
BITMAP 
F0
18
70
C0
F8
ENDCHAR
STARTCHAR uni00B3
ENCODING 179
SWIDTH 321 0
DWIDTH 6 0
BBX 4 5 1 2
VVECTOR 3 10
SWIDTH1 0 -1286
DWIDTH1 0 -12
BITMAP 
E0
30
E0
30
E0
ENDCHAR
STARTCHAR acute
ENCODING 180
SWIDTH 482 0
DWIDTH 9 0
BBX 4 2 3 6
VVECTOR 6 10
SWIDTH1 0 -1286
DWIDTH1 0 -12
BITMAP 
70
C0
ENDCHAR
STARTCHAR mu
ENCODING 181
SWIDTH 482 0
DWIDTH 9 0
BBX 8 7 1 -2
VVECTOR 6 10
SWIDTH1 0 -1286
DWIDTH1 0 -12
BITMAP 
C6
C6
C6
C6
FB
C0
C0
ENDCHAR
STARTCHAR paragraph
ENCODING 182
SWIDTH 482 0
DWIDTH 9 0
BBX 8 7 0 0
VVECTOR 4 10
SWIDTH1 0 -1286
DWIDTH1 0 -12
BITMAP 
7F
F2
F2
72
12
12
12
ENDCHAR
STARTCHAR periodcentered
ENCODING 183
SWIDTH 268 0
DWIDTH 5 0
BBX 2 1 2 3
VVECTOR 4 10
SWIDTH1 0 -1286
DWIDTH1 0 -12
BITMAP 
C0
ENDCHAR
STARTCHAR cedilla
ENCODING 184
SWIDTH 482 0
DWIDTH 9 0
BBX 3 2 2 -2
VVECTOR 3 10
SWIDTH1 0 -1286
DWIDTH1 0 -12
BITMAP 
20
E0
ENDCHAR
STARTCHAR uni00B9
ENCODING 185
SWIDTH 321 0
DWIDTH 6 0
BBX 4 5 0 2
VVECTOR 1 10
SWIDTH1 0 -1286
DWIDTH1 0 -12
BITMAP 
30
F0
30
30
30
ENDCHAR
STARTCHAR ordmasculine
ENCODING 186
SWIDTH 375 0
DWIDTH 7 0
BBX 6 7 1 0
VVECTOR 5 10
SWIDTH1 0 -1286
DWIDTH1 0 -12
BITMAP 
78
CC
CC
CC
78
00
FC
ENDCHAR
STARTCHAR guillemotright
ENCODING 187
SWIDTH 482 0
DWIDTH 9 0
BBX 7 3 1 1
VVECTOR 5 10
SWIDTH1 0 -1286
DWIDTH1 0 -12
BITMAP 
CC
66
CC
ENDCHAR
STARTCHAR onequarter
ENCODING 188
SWIDTH 804 0
DWIDTH 15 0
BBX 14 7 0 0
VVECTOR 7 10
SWIDTH1 0 -1286
DWIDTH1 0 -12
BITMAP 
3030
F060
30C8
3198
3328
067C
0C08
ENDCHAR
STARTCHAR onehalf
ENCODING 189
SWIDTH 804 0
DWIDTH 15 0
BBX 14 7 0 0
VVECTOR 7 10
SWIDTH1 0 -1286
DWIDTH1 0 -12
BITMAP 
3060
F0C0
31B8
330C
3638
0C60
187C
ENDCHAR
STARTCHAR threequarters
ENCODING 190
SWIDTH 804 0
DWIDTH 15 0
BBX 13 7 1 0
VVECTOR 8 10
SWIDTH1 0 -1286
DWIDTH1 0 -12
BITMAP 
E060
30C0
E190
3330
E650
0CF8
1810
ENDCHAR
STARTCHAR questiondown
ENCODING 191
SWIDTH 536 0
DWIDTH 10 0
BBX 8 7 1 0
VVECTOR 5 10
SWIDTH1 0 -1286
DWIDTH1 0 -12
BITMAP 
18
00
18
30
C0
C3
3C
ENDCHAR
STARTCHAR Agrave
ENCODING 192
SWIDTH 643 0
DWIDTH 12 0
BBX 12 10 0 0
VVECTOR 6 10
SWIDTH1 0 -1286
DWIDTH1 0 -12
BITMAP 
1C00
0600
0000
0600
0F00
1980
30C0
3FC0
6060
C030
ENDCHAR
STARTCHAR Aacute
ENCODING 193
SWIDTH 643 0
DWIDTH 12 0
BBX 12 10 0 0
VVECTOR 6 10
SWIDTH1 0 -1286
DWIDTH1 0 -12
BITMAP 
0380
0600
0000
0600
0F00
1980
30C0
3FC0
6060
C030
ENDCHAR
STARTCHAR Acircumflex
ENCODING 194
SWIDTH 643 0
DWIDTH 12 0
BBX 12 10 0 0
VVECTOR 6 10
SWIDTH1 0 -1286
DWIDTH1 0 -12
BITMAP 
0F00
1980
0000
0600
0F00
1980
30C0
3FC0
6060
C030
ENDCHAR
STARTCHAR Atilde
ENCODING 195
SWIDTH 643 0
DWIDTH 12 0
BBX 12 10 0 0
VVECTOR 6 10
SWIDTH1 0 -1286
DWIDTH1 0 -12
BITMAP 
0680
0B00
0000
0600
0F00
1980
30C0
3FC0
6060
C030
ENDCHAR
STARTCHAR Adieresis
ENCODING 196
SWIDTH 643 0
DWIDTH 12 0
BBX 12 10 0 0
VVECTOR 6 10
SWIDTH1 0 -1286
DWIDTH1 0 -12
BITMAP 
1980
0000
0000
0600
0F00
1980
30C0
3FC0
6060
C030
ENDCHAR
STARTCHAR Aring
ENCODING 197
SWIDTH 643 0
DWIDTH 12 0
BBX 12 9 0 0
VVECTOR 6 10
SWIDTH1 0 -1286
DWIDTH1 0 -12
BITMAP 
0600
0900
0600
0F00
1980
30C0
3FC0
6060
C030
ENDCHAR
STARTCHAR AE
ENCODING 198
SWIDTH 911 0
DWIDTH 17 0
BBX 16 7 0 0
VVECTOR 8 10
SWIDTH1 0 -1286
DWIDTH1 0 -12
BITMAP 
07FF
0D80
1980
11FE
3F80
6180
C1FF
ENDCHAR
STARTCHAR Ccedilla
ENCODING 199
SWIDTH 696 0
DWIDTH 13 0
BBX 11 9 1 -2
VVECTOR 7 10
SWIDTH1 0 -1286
DWIDTH1 0 -12
BITMAP 
1F80
6060
C000
C000
C000
6060
1F80
0200
0E00
ENDCHAR
STARTCHAR Egrave
ENCODING 200
SWIDTH 589 0
DWIDTH 11 0
BBX 9 10 1 0
VVECTOR 6 10
SWIDTH1 0 -1286
DWIDTH1 0 -12
BITMAP 
3800
0C00
0000
FF80
C000
C000
FF00
C000
C000
FF80
ENDCHAR
STARTCHAR Eacute
ENCODING 201
SWIDTH 589 0
DWIDTH 11 0
BBX 9 10 1 0
VVECTOR 6 10
SWIDTH1 0 -1286
DWIDTH1 0 -12
BITMAP 
0E00
1800
0000
FF80
C000
C000
FF00
C000
C000
FF80
ENDCHAR
STARTCHAR Ecircumflex
ENCODING 202
SWIDTH 589 0
DWIDTH 11 0
BBX 9 10 1 0
VVECTOR 6 10
SWIDTH1 0 -1286
DWIDTH1 0 -12
BITMAP 
1C00
3600
0000
FF80
C000
C000
FF00
C000
C000
FF80
ENDCHAR
STARTCHAR Edieresis
ENCODING 203
SWIDTH 589 0
DWIDTH 11 0
BBX 9 10 1 0
VVECTOR 6 10
SWIDTH1 0 -1286
DWIDTH1 0 -12
BITMAP 
3600
0000
0000
FF80
C000
C000
FF00
C000
C000
FF80
ENDCHAR
STARTCHAR Igrave
ENCODING 204
SWIDTH 214 0
DWIDTH 4 0
BBX 4 10 0 0
VVECTOR 2 10
SWIDTH1 0 -1286
DWIDTH1 0 -12
BITMAP 
E0
30
00
60
60
60
60
60
60
60
ENDCHAR
STARTCHAR Iacute
ENCODING 205
SWIDTH 214 0
DWIDTH 4 0
BBX 4 10 0 0
VVECTOR 2 10
SWIDTH1 0 -1286
DWIDTH1 0 -12
BITMAP 
70
C0
00
60
60
60
60
60
60
60
ENDCHAR
STARTCHAR Icircumflex
ENCODING 206
SWIDTH 214 0
DWIDTH 4 0
BBX 4 10 0 0
VVECTOR 2 10
SWIDTH1 0 -1286
DWIDTH1 0 -12
BITMAP 
60
90
00
60
60
60
60
60
60
60
ENDCHAR
STARTCHAR Idieresis
ENCODING 207
SWIDTH 321 0
DWIDTH 6 0
BBX 6 10 0 0
VVECTOR 3 10
SWIDTH1 0 -1286
DWIDTH1 0 -12
BITMAP 
CC
00
00
30
30
30
30
30
30
30
ENDCHAR
STARTCHAR Eth
ENCODING 208
SWIDTH 696 0
DWIDTH 13 0
BBX 12 7 0 0
VVECTOR 6 10
SWIDTH1 0 -1286
DWIDTH1 0 -12
BITMAP 
7F80
6060
6030
FC30
6030
6060
7F80
ENDCHAR
STARTCHAR Ntilde
ENCODING 209
SWIDTH 643 0
DWIDTH 12 0
BBX 10 10 1 0
VVECTOR 6 10
SWIDTH1 0 -1286
DWIDTH1 0 -12
BITMAP 
0D00
1600
0000
E0C0
F0C0
D8C0
CCC0
C6C0
C3C0
C1C0
ENDCHAR
STARTCHAR Ograve
ENCODING 210
SWIDTH 804 0
DWIDTH 15 0
BBX 13 10 1 0
VVECTOR 8 10
SWIDTH1 0 -1286
DWIDTH1 0 -12
BITMAP 
0E00
0300
0000
1FC0
6030
C018
C018
C018
6030
1FC0
ENDCHAR
STARTCHAR Oacute
ENCODING 211
SWIDTH 804 0
DWIDTH 15 0
BBX 13 10 1 0
VVECTOR 8 10
SWIDTH1 0 -1286
DWIDTH1 0 -12
BITMAP 
0380
0600
0000
1FC0
6030
C018
C018
C018
6030
1FC0
ENDCHAR
STARTCHAR Ocircumflex
ENCODING 212
SWIDTH 804 0
DWIDTH 15 0
BBX 13 10 1 0
VVECTOR 8 10
SWIDTH1 0 -1286
DWIDTH1 0 -12
BITMAP 
0700
0D80
0000
1FC0
6030
C018
C018
C018
6030
1FC0
ENDCHAR
STARTCHAR Otilde
ENCODING 213
SWIDTH 804 0
DWIDTH 15 0
BBX 13 10 1 0
VVECTOR 8 10
SWIDTH1 0 -1286
DWIDTH1 0 -12
BITMAP 
0680
0B00
0000
1FC0
6030
C018
C018
C018
6030
1FC0
ENDCHAR
STARTCHAR Odieresis
ENCODING 214
SWIDTH 804 0
DWIDTH 15 0
BBX 13 10 1 0
VVECTOR 8 10
SWIDTH1 0 -1286
DWIDTH1 0 -12
BITMAP 
0D80
0000
0000
1FC0
6030
C018
C018
C018
6030
1FC0
ENDCHAR
STARTCHAR multiply
ENCODING 215
SWIDTH 429 0
DWIDTH 8 0
BBX 6 5 1 0
VVECTOR 4 10
SWIDTH1 0 -1286
DWIDTH1 0 -12
BITMAP 
84
48
30
48
84
ENDCHAR
STARTCHAR Oslash
ENCODING 216
SWIDTH 804 0
DWIDTH 15 0
BBX 13 7 1 0
VVECTOR 8 10
SWIDTH1 0 -1286
DWIDTH1 0 -12
BITMAP 
1FD8
6070
C198
C618
D818
6030
9FC0
ENDCHAR
STARTCHAR Ugrave
ENCODING 217
SWIDTH 696 0
DWIDTH 13 0
BBX 11 10 1 0
VVECTOR 7 10
SWIDTH1 0 -1286
DWIDTH1 0 -12
BITMAP 
1C00
0600
0000
C060
C060
C060
C060
C060
60C0
3F80
ENDCHAR
STARTCHAR Uacute
ENCODING 218
SWIDTH 696 0
DWIDTH 13 0
BBX 11 10 1 0
VVECTOR 7 10
SWIDTH1 0 -1286
DWIDTH1 0 -12
BITMAP 
0700
0C00
0000
C060
C060
C060
C060
C060
60C0
3F80
ENDCHAR
STARTCHAR Ucircumflex
ENCODING 219
SWIDTH 696 0
DWIDTH 13 0
BBX 11 10 1 0
VVECTOR 7 10
SWIDTH1 0 -1286
DWIDTH1 0 -12
BITMAP 
0E00
1B00
0000
C060
C060
C060
C060
C060
60C0
3F80
ENDCHAR
STARTCHAR Udieresis
ENCODING 220
SWIDTH 696 0
DWIDTH 13 0
BBX 11 10 1 0
VVECTOR 7 10
SWIDTH1 0 -1286
DWIDTH1 0 -12
BITMAP 
1B00
0000
0000
C060
C060
C060
C060
C060
60C0
3F80
ENDCHAR
STARTCHAR Yacute
ENCODING 221
SWIDTH 643 0
DWIDTH 12 0
BBX 10 10 1 0
VVECTOR 6 10
SWIDTH1 0 -1286
DWIDTH1 0 -12
BITMAP 
0700
0C00
0000
C0C0
6180
3300
1E00
0C00
0C00
0C00
ENDCHAR
STARTCHAR Thorn
ENCODING 222
SWIDTH 589 0
DWIDTH 11 0
BBX 9 7 1 0
VVECTOR 6 10
SWIDTH1 0 -1286
DWIDTH1 0 -12
BITMAP 
C000
FE00
C180
C180
FE00
C000
C000
ENDCHAR
STARTCHAR germandbls
ENCODING 223
SWIDTH 536 0
DWIDTH 10 0
BBX 8 7 1 0
VVECTOR 5 10
SWIDTH1 0 -1286
DWIDTH1 0 -12
BITMAP 
3C
C6
C6
DC
C3
C3
DC
ENDCHAR
STARTCHAR agrave
ENCODING 224
SWIDTH 536 0
DWIDTH 10 0
BBX 9 8 1 0
VVECTOR 6 10
SWIDTH1 0 -1286
DWIDTH1 0 -12
BITMAP 
7000
1800
0000
7E00
0300
7F00
C300
7D80
ENDCHAR
STARTCHAR aacute
ENCODING 225
SWIDTH 536 0
DWIDTH 10 0
BBX 9 8 1 0
VVECTOR 6 10
SWIDTH1 0 -1286
DWIDTH1 0 -12
BITMAP 
0E00
1800
0000
7E00
0300
7F00
C300
7D80
ENDCHAR
STARTCHAR acircumflex
ENCODING 226
SWIDTH 536 0
DWIDTH 10 0
BBX 9 8 1 0
VVECTOR 6 10
SWIDTH1 0 -1286
DWIDTH1 0 -12
BITMAP 
1C00
3600
0000
7E00
0300
7F00
C300
7D80
ENDCHAR
STARTCHAR atilde
ENCODING 227
SWIDTH 536 0
DWIDTH 10 0
BBX 9 8 1 0
VVECTOR 6 10
SWIDTH1 0 -1286
DWIDTH1 0 -12
BITMAP 
1A00
2C00
0000
7E00
0300
7F00
C300
7D80
ENDCHAR
STARTCHAR adieresis
ENCODING 228
SWIDTH 536 0
DWIDTH 10 0
BBX 9 8 1 0
VVECTOR 6 10
SWIDTH1 0 -1286
DWIDTH1 0 -12
BITMAP 
3600
0000
0000
7E00
0300
7F00
C300
7D80
ENDCHAR
STARTCHAR aring
ENCODING 229
SWIDTH 536 0
DWIDTH 10 0
BBX 9 9 1 0
VVECTOR 6 10
SWIDTH1 0 -1286
DWIDTH1 0 -12
BITMAP 
1C00
2200
1C00
0000
7E00
0300
7F00
C300
7D80
ENDCHAR
STARTCHAR ae
ENCODING 230
SWIDTH 911 0
DWIDTH 17 0
BBX 15 5 1 0
VVECTOR 9 10
SWIDTH1 0 -1286
DWIDTH1 0 -12
BITMAP 
7EFC
0306
7FFE
C300
7DFC
ENDCHAR
STARTCHAR ccedilla
ENCODING 231
SWIDTH 482 0
DWIDTH 9 0
BBX 8 7 1 -2
VVECTOR 6 10
SWIDTH1 0 -1286
DWIDTH1 0 -12
BITMAP 
7E
C3
C0
C3
7E
08
38
ENDCHAR
STARTCHAR egrave
ENCODING 232
SWIDTH 536 0
DWIDTH 10 0
BBX 9 8 1 0
VVECTOR 6 10
SWIDTH1 0 -1286
DWIDTH1 0 -12
BITMAP 
3800
0C00
0000
7F00
C180
FF80
C000
7F00
ENDCHAR
STARTCHAR eacute
ENCODING 233
SWIDTH 536 0
DWIDTH 10 0
BBX 9 8 1 0
VVECTOR 6 10
SWIDTH1 0 -1286
DWIDTH1 0 -12
BITMAP 
0E00
1800
0000
7F00
C180
FF80
C000
7F00
ENDCHAR
STARTCHAR ecircumflex
ENCODING 234
SWIDTH 536 0
DWIDTH 10 0
BBX 9 8 1 0
VVECTOR 6 10
SWIDTH1 0 -1286
DWIDTH1 0 -12
BITMAP 
1C00
3600
0000
7F00
C180
FF80
C000
7F00
ENDCHAR
STARTCHAR edieresis
ENCODING 235
SWIDTH 536 0
DWIDTH 10 0
BBX 9 8 1 0
VVECTOR 6 10
SWIDTH1 0 -1286
DWIDTH1 0 -12
BITMAP 
3600
0000
0000
7F00
C180
FF80
C000
7F00
ENDCHAR
STARTCHAR igrave
ENCODING 236
SWIDTH 214 0
DWIDTH 4 0
BBX 4 8 0 0
VVECTOR 2 10
SWIDTH1 0 -1286
DWIDTH1 0 -12
BITMAP 
E0
30
00
60
60
60
60
60
ENDCHAR
STARTCHAR iacute
ENCODING 237
SWIDTH 214 0
DWIDTH 4 0
BBX 4 8 0 0
VVECTOR 2 10
SWIDTH1 0 -1286
DWIDTH1 0 -12
BITMAP 
70
C0
00
60
60
60
60
60
ENDCHAR
STARTCHAR icircumflex
ENCODING 238
SWIDTH 268 0
DWIDTH 5 0
BBX 5 8 0 0
VVECTOR 3 10
SWIDTH1 0 -1286
DWIDTH1 0 -12
BITMAP 
68
B0
00
60
60
60
60
60
ENDCHAR
STARTCHAR idieresis
ENCODING 239
SWIDTH 321 0
DWIDTH 6 0
BBX 6 8 0 0
VVECTOR 3 10
SWIDTH1 0 -1286
DWIDTH1 0 -12
BITMAP 
CC
00
00
30
30
30
30
30
ENDCHAR
STARTCHAR eth
ENCODING 240
SWIDTH 589 0
DWIDTH 11 0
BBX 9 7 1 0
VVECTOR 6 10
SWIDTH1 0 -1286
DWIDTH1 0 -12
BITMAP 
7600
2C00
7F00
C180
C180
C180
7F00
ENDCHAR
STARTCHAR ntilde
ENCODING 241
SWIDTH 536 0
DWIDTH 10 0
BBX 8 8 1 0
VVECTOR 5 10
SWIDTH1 0 -1286
DWIDTH1 0 -12
BITMAP 
1A
2C
00
DE
E3
C3
C3
C3
ENDCHAR
STARTCHAR ograve
ENCODING 242
SWIDTH 589 0
DWIDTH 11 0
BBX 9 8 1 0
VVECTOR 6 10
SWIDTH1 0 -1286
DWIDTH1 0 -12
BITMAP 
7000
1800
0000
7F00
C180
C180
C180
7F00
ENDCHAR
STARTCHAR oacute
ENCODING 243
SWIDTH 589 0
DWIDTH 11 0
BBX 9 8 1 0
VVECTOR 6 10
SWIDTH1 0 -1286
DWIDTH1 0 -12
BITMAP 
0700
0C00
0000
7F00
C180
C180
C180
7F00
ENDCHAR
STARTCHAR ocircumflex
ENCODING 244
SWIDTH 589 0
DWIDTH 11 0
BBX 9 8 1 0
VVECTOR 6 10
SWIDTH1 0 -1286
DWIDTH1 0 -12
BITMAP 
1C00
3600
0000
7F00
C180
C180
C180
7F00
ENDCHAR
STARTCHAR otilde
ENCODING 245
SWIDTH 589 0
DWIDTH 11 0
BBX 9 8 1 0
VVECTOR 6 10
SWIDTH1 0 -1286
DWIDTH1 0 -12
BITMAP 
1A00
2C00
0000
7F00
C180
C180
C180
7F00
ENDCHAR
STARTCHAR odieresis
ENCODING 246
SWIDTH 589 0
DWIDTH 11 0
BBX 9 8 1 0
VVECTOR 6 10
SWIDTH1 0 -1286
DWIDTH1 0 -12
BITMAP 
3600
0000
0000
7F00
C180
C180
C180
7F00
ENDCHAR
STARTCHAR divide
ENCODING 247
SWIDTH 429 0
DWIDTH 8 0
BBX 6 5 1 0
VVECTOR 4 10
SWIDTH1 0 -1286
DWIDTH1 0 -12
BITMAP 
30
00
FC
00
30
ENDCHAR
STARTCHAR oslash
ENCODING 248
SWIDTH 589 0
DWIDTH 11 0
BBX 9 5 1 0
VVECTOR 6 10
SWIDTH1 0 -1286
DWIDTH1 0 -12
BITMAP 
3E80
C700
D980
6180
BE00
ENDCHAR
STARTCHAR ugrave
ENCODING 249
SWIDTH 536 0
DWIDTH 10 0
BBX 8 8 1 0
VVECTOR 5 10
SWIDTH1 0 -1286
DWIDTH1 0 -12
BITMAP 
70
18
00
C3
C3
C3
C7
7B
ENDCHAR
STARTCHAR uacute
ENCODING 250
SWIDTH 536 0
DWIDTH 10 0
BBX 8 8 1 0
VVECTOR 5 10
SWIDTH1 0 -1286
DWIDTH1 0 -12
BITMAP 
0E
18
00
C3
C3
C3
C7
7B
ENDCHAR
STARTCHAR ucircumflex
ENCODING 251
SWIDTH 536 0
DWIDTH 10 0
BBX 8 8 1 0
VVECTOR 5 10
SWIDTH1 0 -1286
DWIDTH1 0 -12
BITMAP 
3C
66
00
C3
C3
C3
C7
7B
ENDCHAR
STARTCHAR udieresis
ENCODING 252
SWIDTH 536 0
DWIDTH 10 0
BBX 8 8 1 0
VVECTOR 5 10
SWIDTH1 0 -1286
DWIDTH1 0 -12
BITMAP 
66
00
00
C3
C3
C3
C7
7B
ENDCHAR
STARTCHAR yacute
ENCODING 253
SWIDTH 482 0
DWIDTH 9 0
BBX 9 10 0 -2
VVECTOR 5 10
SWIDTH1 0 -1286
DWIDTH1 0 -12
BITMAP 
0700
0C00
0000
C180
6300
3600
1C00
1800
1800
7000
ENDCHAR
STARTCHAR thorn
ENCODING 254
SWIDTH 589 0
DWIDTH 11 0
BBX 9 9 1 -2
VVECTOR 6 10
SWIDTH1 0 -1286
DWIDTH1 0 -12
BITMAP 
C000
C000
DF00
E180
C180
E180
DF00
C000
C000
ENDCHAR
STARTCHAR ydieresis
ENCODING 255
SWIDTH 482 0
DWIDTH 9 0
BBX 9 10 0 -2
VVECTOR 5 10
SWIDTH1 0 -1286
DWIDTH1 0 -12
BITMAP 
3600
0000
0000
C180
6300
3600
1C00
1800
1800
7000
ENDCHAR
ENDFONT
